<?xml version="1.0" encoding="UTF-8"?>
<svg width="384px" height="384px" viewBox="0 0 384 384" version="1.1" xmlns="http://www.w3.org/2000/svg" xmlns:xlink="http://www.w3.org/1999/xlink">
    <title>cent</title>
    <g id="Page-1" stroke="none" stroke-width="1" fill="none" fill-rule="evenodd">
        <g id="Artboard-Copy-9" transform="translate(-544.000000, -266.000000)" fill="#FFFFFF" fill-rule="nonzero">
            <g id="cent" transform="translate(544.000000, 266.000000)">
                <path d="M192,0 C86.128906,0 0,86.128906 0,192 C0,297.863281 86.128906,384 192,384 C297.871094,384 384,297.863281 384,192 C384,86.128906 297.871094,0 192,0 Z M192,352 C103.777344,352 32,280.222656 32,192 C32,103.777344 103.777344,32 192,32 C280.222656,32 352,103.777344 352,192 C352,280.222656 280.222656,352 192,352 Z" id="Shape"></path>
                <path d="M192,144 C204.824219,144 216.871094,148.992188 225.9375,158.054688 L237.257812,169.375 L259.886719,146.742188 L248.574219,135.433594 C237.304688,124.167969 223.273438,116.6875 208,113.601562 L208,80 L176,80 L176,113.601562 C160.726562,116.679688 146.695312,124.160156 135.433594,135.425781 C120.320312,150.535156 112,170.632812 112,192 C112,213.367188 120.320312,233.464844 135.433594,248.566406 C146.945312,260.078125 161.128906,267.3125 176,270.328125 L176,304 L208,304 L208,270.328125 C222.871094,267.3125 237.054688,260.078125 248.566406,248.566406 L259.886719,237.257812 L237.257812,214.632812 L225.945312,225.945312 C207.222656,244.664062 176.777344,244.648438 158.0625,225.945312 C148.992188,216.871094 144,204.824219 144,192 C144,179.175781 148.992188,167.128906 158.0625,158.054688 C167.128906,148.992188 179.175781,144 192,144 L192,144 Z" id="Path"></path>
            </g>
        </g>
    </g>
</svg>